<?xml version="1.0" standalone="no"?>
<!DOCTYPE svg PUBLIC "-//W3C//DTD SVG 20010904//EN"
 "http://www.w3.org/TR/2001/REC-SVG-20010904/DTD/svg10.dtd">
<svg version="1.0" xmlns="http://www.w3.org/2000/svg"
 width="75.000000pt" height="75.000000pt" viewBox="0 0 75.000000 75.000000"
 preserveAspectRatio="xMidYMid meet">
<metadata>
Created by potrace 1.14, written by Peter Selinger 2001-2017
</metadata>
<g transform="translate(0.000000,75.000000) scale(0.100000,-0.100000)"
fill="#000000" stroke="none">
<path d="M0 380 l0 -370 370 0 370 0 0 370 0 370 -370 0 -370 0 0 -370z m120
-5 l0 -215 -40 0 -40 0 0 215 0 215 40 0 40 0 0 -215z m280 110 c0 -23 -4 -25
-45 -25 l-45 0 0 -120 0 -120 -35 0 -35 0 0 120 0 120 -45 0 c-41 0 -45 2 -45
25 l0 25 125 0 125 0 0 -25z m226 10 c65 -27 80 -123 27 -165 l-25 -19 32 -46
31 -45 -35 0 c-29 0 -39 6 -63 40 -23 32 -34 40 -60 40 -32 0 -33 -1 -33 -40
0 -39 -1 -40 -35 -40 l-35 0 0 145 0 145 80 0 c48 0 95 -6 116 -15z"/>
<path d="M500 406 l0 -56 38 0 c46 0 82 24 82 54 0 32 -22 48 -75 54 l-45 5 0
-57z"/>
</g>
</svg>
