<svg style="overflow:visible" xmlns="http://www.w3.org/2000/svg" viewBox="0 0 298.16 319.97"><g data-name="Layer 2"><g data-name="Layer 1"><g data-name="freepik--Device--inject-12"><g data-name="freepik--Laptop--inject-12" id="laptop" className="invisible" ><path d="M6.51 249.63a9.8 9.8 0 004.56 7.58l106.8 61.66a10.06 10.06 0 009.13 0l166.6-96.18a8.58 8.58 0 003.56-11.6 8.49 8.49 0 00-3.56-3.56l-106.8-61.66a10 10 0 00-9.12 0L11.07 242.06a9.77 9.77 0 00-4.56 7.57z" fill="#37474f"/><path d="M11.07 247.33L117.87 309a10.13 10.13 0 009.13 0l166.6-96.19c2.52-1.45 2.52-3.81 0-5.27l-106.8-61.66a10 10 0 00-9.12 0L11.07 242.06c-2.52 1.45-2.52 3.81 0 5.27z" fill="#455a64"/><path d="M122.44 310.09V320a9.38 9.38 0 01-4.56-1.08L11.07 257.21a8.55 8.55 0 01-.46-14.86c-2 1.47-1.89 3.62.46 5L117.88 309a9.16 9.16 0 004.56 1.09z" fill="#263238"/><path d="M2.26 242.22C-.1 240.85 0 238.55 0 235.64V105.16a10.12 10.12 0 014.57-7.9L171.2 1.07c2.52-1.45 6.18-1.46 8.32.24s2.76 3.27 2.76 6.18V138a10.08 10.08 0 01-4.56 7.9L11.07 242.06a9.83 9.83 0 01-8.81.16z" fill="#37474f"/><path d="M182.26 7.49c0-2.91-2-4.09-4.56-2.64l-166.61 96.2a9.09 9.09 0 00-3.22 3.41l-6.51-3.79a9.35 9.35 0 013.23-3.41l166.6-96.19c2.52-1.45 6.19-1.48 8.32.24s2.75 3.27 2.75 6.18z" fill="#455a64"/><path d="M10.53 242.33a9.83 9.83 0 01-8.3-.11C-.13 240.86 0 238.55 0 235.64V105.16a9.12 9.12 0 011.34-4.49l6.51 3.77a9.37 9.37 0 00-1.34 4.49v130.49c0 2.7 1.75 3.91 4.02 2.91z" fill="#263238"/><path d="M13.53 106.33l160.32-92.54c1.52-.88 2.74-.17 2.74 1.58v121.32a6 6 0 01-2.74 4.74L13.53 234c-1.52.87-2.74.16-2.74-1.58V111.05a6 6 0 012.74-4.72z"/><path d="M13.53 106.33a6 6 0 00-2.74 4.74v119.2l158.47-91.48a6 6 0 002.73-4.74V14.82zM25.16 242.83l153.1-88.39a4.72 4.72 0 014.3 0l5.57 3.13a1.31 1.31 0 01.82 1.66 1.29 1.29 0 01-.82.82L35 248.43a4.79 4.79 0 01-4.3 0l-5.56-3.1a1.31 1.31 0 010-2.5zM40.2 251.7l153.06-88.37a4.39 4.39 0 013.93-.22l39.85 23c1 .57.82 1.58-.37 2.27L83.79 276.64a4.41 4.41 0 01-3.94.22l-40-22.9c-1-.56-.85-1.58.35-2.26z" fill="#263238"/><path d="M172.86 200.43l4.8-2.77c.2-.11.22-.29 0-.4l-4.59-2.65a.78.78 0 00-.7 0l-4.79 2.77c-.2.11-.22.29 0 .4l4.59 2.65a.76.76 0 00.69 0zm-7-9.57l-4.79 2.76c-.2.12-.22.3 0 .41l4.58 2.64a.73.73 0 00.7 0l4.79-2.77c.21-.12.23-.3.05-.4l-4.59-2.65a.78.78 0 00-.74.01zm-15.48 8.94l-8.12 4.68c-.2.12-.22.3 0 .4l4.59 2.65a.78.78 0 00.7 0l8.11-4.69c.2-.11.22-.29 0-.4l-4.59-2.65a.76.76 0 00-.69.01zm8.48-4.9l-4.8 2.77c-.2.12-.22.3 0 .4l4.59 2.65a.76.76 0 00.69 0l4.8-2.76c.2-.12.22-.3 0-.4l-4.59-2.65a.73.73 0 00-.69-.01zm-18.81 10.86l-4.79 2.77c-.21.11-.22.29 0 .4l4.58 2.65a.78.78 0 00.7 0l4.79-2.77c.21-.11.22-.29 0-.4l-4.58-2.65a.78.78 0 00-.7 0zm-7 4l-4.8 2.77c-.2.12-.22.3 0 .4l4.59 2.65a.76.76 0 00.69 0l4.8-2.77c.2-.12.22-.3 0-.4l-4.59-2.65a.8.8 0 00-.69 0zm18 10.81l4.79-2.77c.21-.12.23-.3 0-.4l-4.63-2.61a.85.85 0 00-.7 0l-4.79 2.77c-.2.12-.22.3 0 .4l4.58 2.65a.79.79 0 00.67 0zm-7 4l4.79-2.77c.2-.11.22-.29 0-.4l-4.58-2.56a.76.76 0 00-.69 0l-4.8 2.77c-.2.11-.22.29 0 .4l4.59 2.65a.8.8 0 00.66 0zm-7 4.05l4.79-2.77c.21-.12.22-.3 0-.4l-4.58-2.57a.85.85 0 00-.7 0l-4.79 2.77c-.21.12-.22.3 0 .4l4.58 2.65a.76.76 0 00.66 0zm-7 4l4.8-2.77c.2-.11.22-.29 0-.4l-4.59-2.53a.76.76 0 00-.69 0l-4.8 2.77c-.2.11-.22.29 0 .4l4.59 2.65a.79.79 0 00.64 0zm35.86-28.26l4.79-2.77c.2-.12.22-.3 0-.4l-4.59-2.65a.83.83 0 00-.69 0l-4.79 2.77c-.21.12-.23.3 0 .4l4.59 2.65a.78.78 0 00.69.12zm-7.83 12.08l10.69-6.17c.2-.12.22-.3 0-.4l-11.14-6.43a.76.76 0 00-.69 0l-5.53 3.19c-.21.12-.23.3 0 .41l5.89 3.4c.18.1.16.28 0 .4l-4.42 2.56c-.21.11-.23.29 0 .4l4.59 2.65a.8.8 0 00.56.11zm-32-2.71l-4.82 2.89c-.21.11-.23.29-.05.4l4.59 2.65a.78.78 0 00.7 0l4.79-2.77c.2-.11.22-.29 0-.4l-4.58-2.65a.79.79 0 00-.67 0zm-7 4l-4.82 2.93c-.2.12-.22.3 0 .4l4.58 2.65a.78.78 0 00.7 0l4.79-2.77c.21-.12.23-.3 0-.4l-4.59-2.65a.85.85 0 00-.76 0zm-38.82 43.35a.85.85 0 00.7 0l4.79-2.77c.21-.12.23-.3 0-.4l-4.54-2.67a.78.78 0 00-.7 0L75.77 258c-.2.12-.22.3 0 .4zM63 250.25L58.19 253c-.2.12-.22.3 0 .4l4.59 2.65a.83.83 0 00.69 0l4.79-2.74c.2-.12.22-.3 0-.4l-4.59-2.65a.74.74 0 00-.67-.01zm8.88 8.11a.78.78 0 00.7 0l4.79-2.77c.2-.12.22-.3 0-.4l-4.59-2.65a.76.76 0 00-.69 0l-4.8 2.76c-.2.12-.22.3 0 .4zm19.33 4.35l4.79-2.77c.21-.12.23-.3 0-.4l-4.58-2.65a.78.78 0 00-.7 0l-4.79 2.76c-.2.12-.22.3 0 .41l4.58 2.64a.75.75 0 00.7 0zm-7.7 4.07a.83.83 0 00.69 0L89 264c.2-.12.22-.3 0-.4l-4.6-2.6a.76.76 0 00-.69 0l-4.8 2.77c-.2.12-.22.3 0 .4zM70 246.21L65.2 249c-.21.11-.22.29 0 .4l4.58 2.6a.78.78 0 00.7 0l4.78-2.8c.21-.11.22-.29 0-.4l-4.58-2.65a.76.76 0 00-.69 0zM105 226l-4.73 2.77c-.21.12-.22.3 0 .4l4.58 2.65a.85.85 0 00.7 0l4.79-2.77c.21-.12.22-.3 0-.4l-4.59-2.65a.79.79 0 00-.73 0zm-28 16.16l-4.8 2.77c-.2.12-.22.3 0 .4l4.58 2.67a.85.85 0 00.7 0l4.79-2.77c.2-.12.22-.3 0-.4l-4.59-2.65a.74.74 0 00-.68 0zm35-20.22l-4.8 2.77c-.2.11-.22.29 0 .4l4.59 2.65a.78.78 0 00.7 0l4.79-2.77c.2-.11.22-.29 0-.4l-4.59-2.65a.74.74 0 00-.65 0zM98 230l-4.8 2.77c-.2.11-.22.29 0 .4l4.59 2.65a.76.76 0 00.69 0l4.8-2.77c.2-.11.22-.29 0-.4l-4.6-2.65a.76.76 0 00-.66 0zm-7 4l-4.73 2.81c-.21.12-.23.3 0 .4l4.59 2.65a.85.85 0 00.7 0l4.79-2.77c.2-.12.22-.3 0-.4l-4.58-2.65a.77.77 0 00-.75 0zm-7 4.05l-4.73 2.81c-.2.11-.22.29 0 .4l4.58 2.65a.78.78 0 00.7 0l4.79-2.77c.21-.11.23-.29 0-.4l-4.59-2.65a.81.81 0 00-.74 0zm32 2.71l4.79-2.77c.21-.11.23-.29 0-.4l-4.53-2.59a.78.78 0 00-.7 0l-4.79 2.77c-.2.11-.22.29 0 .4l4.58 2.65a.79.79 0 00.64 0zm65.36-58.92l-4.79 2.77c-.21.12-.23.3 0 .4l4.58 2.65a.78.78 0 00.7 0l4.79-2.77c.21-.12.22-.3 0-.4l-4.58-2.65a.82.82 0 00-.7 0zm-8.48 4.9l-4.79 2.77c-.21.12-.23.3-.05.4l4.59 2.65a.78.78 0 00.7 0l4.79-2.76c.2-.12.22-.3 0-.4l-4.58-2.65a.76.76 0 00-.66 0zm15.49-8.94l-4.8 2.77c-.2.11-.22.29 0 .4l4.59 2.65a.76.76 0 00.69 0l4.8-2.76c.2-.12.22-.3 0-.41l-4.59-2.64a.76.76 0 00-.69 0zm-38.73 36l4.8-2.76c.2-.12.22-.3 0-.41l-4.6-2.63a.78.78 0 00-.7 0l-4.79 2.77c-.2.12-.22.3 0 .4l4.59 2.65a.76.76 0 00.69 0zm46.43-40a.85.85 0 00-.7 0l-4.79 2.77c-.2.12-.22.3 0 .4l4.58 2.65a.78.78 0 00.7 0l4.79-2.77c.21-.12.23-.3 0-.4zm-73.06 63l4.79-2.77c.2-.12.22-.3 0-.4l-4.54-2.63a.85.85 0 00-.7 0l-4.79 2.77c-.21.12-.23.3 0 .4l4.59 2.65a.76.76 0 00.69 0zm85.91-49.61l4.8-2.76c.2-.12.22-.3 0-.41l-4.55-2.72a.78.78 0 00-.7 0l-4.79 2.77c-.2.11-.22.3 0 .4l4.59 2.65a.74.74 0 00.65 0zm-13.55.27l4.79-2.77c.2-.12.22-.3 0-.4l-4.59-2.65a.76.76 0 00-.69 0l-4.8 2.77c-.2.12-.22.3 0 .4l4.59 2.65a.82.82 0 00.7 0zm7.25-9.87a.78.78 0 00-.7 0l-4.79 2.77c-.2.11-.22.29 0 .4l4.59 2.64a.76.76 0 00.69 0l4.79-2.77c.21-.11.23-.29.05-.4zm1.48-.85l11.17 6.39a.78.78 0 00.7 0l4.79-2.77c.21-.12.22-.3 0-.4l-11.13-6.43a.78.78 0 00-.7 0l-4.79 2.77c-.21.12-.23.3 0 .4zm-16.19 9l-4.79 2.76c-.21.12-.22.3 0 .41l4.58 2.64a.78.78 0 00.7 0l4.79-2.77c.21-.11.23-.29 0-.4l-4.58-2.65a.79.79 0 00-.7-.06zm-52.73 30.44l-4.8 2.82c-.21.12-.22.3 0 .4L135 222a.78.78 0 00.7 0l4.79-2.76c.21-.12.23-.3 0-.41l-4.58-2.64a.76.76 0 00-.7-.08zm66-24.89a.78.78 0 00.7 0l4.79-2.77c.2-.12.22-.3 0-.4l-4.58-2.65a.85.85 0 00-.7 0l-4.79 2.77c-.21.12-.23.3-.05.4zm-59 20.85l-4.8 2.76c-.2.12-.22.3 0 .41L142 218a.78.78 0 00.7 0l4.79-2.77c.2-.12.22-.3 0-.4l-4.59-2.65a.78.78 0 00-.68-.06zM87.26 257a.78.78 0 00.7 0l4.79-2.77c.2-.11.22-.29 0-.4l-4.49-2.68a.78.78 0 00-.7 0L82.77 254c-.21.11-.23.29 0 .4zm-8.15-8.54l-4.79 2.77c-.2.12-.22.3 0 .4l4.59 2.65a.76.76 0 00.69 0l4.8-2.76c.2-.12.22-.3 0-.41l-4.59-2.64a.76.76 0 00-.69 0zM95 253l4.8-2.77c.2-.12.22-.3 0-.4l-4.5-2.65a.85.85 0 00-.7 0l-4.79 2.77c-.2.12-.22.3 0 .4l4.55 2.65a.81.81 0 00.61 0zm7-4.05l4.79-2.77c.21-.11.22-.29 0-.4l-4.49-2.65a.78.78 0 00-.7 0l-4.79 2.77c-.21.11-.22.29 0 .4l4.58 2.65a.77.77 0 00.63 0zm7-4l4.8-2.77c.2-.12.22-.3 0-.4l-4.5-2.69a.83.83 0 00-.69 0l-4.8 2.77c-.2.12-.22.3 0 .4l4.59 2.65a.75.75 0 00.62 0zm-22.85-.42l-4.79 2.76c-.21.12-.23.3 0 .4l4.58 2.65a.78.78 0 00.7 0l4.79-2.77c.21-.12.22-.3 0-.4l-4.58-2.65a.81.81 0 00-.68 0zm7-4.05l-4.8 2.77c-.2.12-.22.3 0 .4l4.59 2.65a.76.76 0 00.69 0l4.8-2.76c.2-.12.22-.3 0-.41l-4.59-2.64a.73.73 0 00-.66-.05zm28-16.18l-4.83 2.7c-.21.12-.23.3 0 .4l4.58 2.65a.78.78 0 00.7 0l4.79-2.76c.2-.12.22-.3 0-.41l-4.58-2.64a.78.78 0 00-.65-.05zm-7 4l-4.79 2.76c-.2.12-.22.3 0 .4l4.59 2.65a.76.76 0 00.69 0l4.8-2.77c.2-.12.22-.3 0-.4l-4.59-2.65a.8.8 0 00-.66 0zm14-8.09l-4.8 2.76c-.2.12-.22.3 0 .4l4.55 2.63a.76.76 0 00.69 0l4.8-2.77c.2-.12.22-.3 0-.4l-4.59-2.65a.77.77 0 00-.63 0zm-28 16.17l-4.79 2.77c-.2.12-.22.3 0 .4l4.58 2.65a.78.78 0 00.7 0l4.79-2.77c.21-.12.23-.3 0-.4l-4.55-2.72a.85.85 0 00-.7 0zm7-4l-4.8 2.77c-.2.12-.22.3 0 .4l4.59 2.65a.78.78 0 00.7 0l4.79-2.76c.2-.12.22-.3 0-.41l-4.55-2.72a.76.76 0 00-.69 0zm-8.85 26.27l4.79-2.77c.2-.12.22-.3 0-.4l-4.59-2.65a.76.76 0 00-.69 0L93 255.62c-.2.12-.22.3 0 .4l4.59 2.65a.85.85 0 00.67 0zm-37-1.75l-4.58-2.65a.78.78 0 00-.7 0L51.19 257c-.21.11-.23.29 0 .4l4.59 2.65a.78.78 0 00.7 0l4.83-2.76c.11-.08.13-.29-.05-.37zm9.13 2.29l-4.58-2.64a.78.78 0 00-.7 0l-7.37 4.26c-.21.12-.22.3 0 .4l4.58 2.65a.78.78 0 00.7 0l7.37-4.25c.13-.11.15-.28-.04-.4zm-16-7.52L49.8 249a.78.78 0 00-.7 0l-5.9 3.4c-.2.12-.22.3 0 .41l4.59 2.64a.78.78 0 00.7 0l5.9-3.41c.19-.1.21-.28 0-.39zm4.52-2.61a.78.78 0 00.7 0l4.79-2.77c.2-.12.22-.3 0-.4l-4.59-2.65a.83.83 0 00-.69 0L54.33 246c-.21.12-.23.3 0 .4zm19.85 12.85l-4.56-2.6a.76.76 0 00-.69 0l-9.25 5.3c-.21.12-.22.3 0 .4l4.58 2.65a.85.85 0 00.7 0l9.22-5.33c.19-.13.21-.31 0-.42zm3.23 5.7L77.41 265a.78.78 0 00-.7 0l-5.9 3.4c-.2.12-.22.3 0 .4l4.58 2.65a.73.73 0 00.7 0L82 268c.19-.11.21-.29 0-.39zM111 219a.78.78 0 00.7 0l4.79-2.76c.2-.12.22-.3 0-.41l-4.58-2.64a.73.73 0 00-.7 0l-4.8 2.81c-.21.11-.23.29 0 .4zm-14 8.1a.76.76 0 00.69 0l4.8-2.77c.2-.11.22-.29 0-.4l-4.59-2.64a.76.76 0 00-.69 0l-4.8 2.77c-.2.11-.22.29 0 .4zM65.92 245a.76.76 0 00.69 0l4.8-2.77c.2-.11.22-.29 0-.4l-4.59-2.65a.78.78 0 00-.7 0L61.33 242c-.2.11-.22.29 0 .4zM104 223a.73.73 0 00.7 0l4.79-2.77c.21-.12.23-.3 0-.4l-4.59-2.65a.85.85 0 00-.7 0L99.45 220c-.2.12-.22.3 0 .4zm-14 8.09a.78.78 0 00.7 0l4.79-2.77c.21-.12.22-.3 0-.4L91 225.33a.85.85 0 00-.7 0l-4.79 2.77c-.21.12-.22.3 0 .4zm-4.56 36.81a.76.76 0 00-.69 0l-7.38 4.26c-.2.11-.22.29 0 .4L82 275.2a.76.76 0 00.69 0l7.31-4.26c.2-.11.22-.29 0-.4zm-5.5-31a.76.76 0 00.69 0l4.8-2.77c.2-.11.22-.29 0-.4l-4.59-2.65a.76.76 0 00-.69 0l-4.8 2.77c-.2.11-.22.29 0 .4zm-7 4a.78.78 0 00.7 0l4.79-2.77c.21-.12.22-.3 0-.4l-4.58-2.65a.85.85 0 00-.7 0l-4.79 2.77c-.21.12-.23.3 0 .4zm142.31-48a.78.78 0 00-.7 0l-11.8 6.81c-.2.12-.22.3 0 .4l4.59 2.65a.76.76 0 00.69 0l11.8-6.81c.21-.12.23-.3 0-.41zm-15.49 8.94a.76.76 0 00-.69 0l-4.8 2.77c-.2.12-.22.3 0 .4l4.59 2.65a.76.76 0 00.69 0l4.8-2.76c.2-.12.22-.3 0-.41zm-94.5 52.78l4.8-2.77c.2-.12.22-.29 0-.4l-4.59-2.65a.78.78 0 00-.7 0l-4.77 2.76c-.2.12-.22.3 0 .41l4.59 2.64a.73.73 0 00.67.01zM185.81 210a.78.78 0 00-.7 0l-4.85 2.79c-.2.12-.22.3 0 .4l4.58 2.65a.78.78 0 00.7 0l4.79-2.76c.21-.12.23-.3 0-.4zm36.45-21.08a.83.83 0 00-.69 0l-4.8 2.77c-.2.12-.22.3 0 .4l4.59 2.65a.78.78 0 00.7 0l4.79-2.77c.2-.12.22-.3 0-.4zm11.6-1.4l-11.14-6.43a.78.78 0 00-.7 0l-4.76 2.8c-.2.11-.22.29 0 .4l11.14 6.43a.76.76 0 00.69 0l4.8-2.76c.11-.14.11-.32-.03-.43zm-74.28 37.59a.78.78 0 00-.7 0l-5.9 3.4c-.2.12-.22.3 0 .4l4.59 2.65a.76.76 0 00.69 0l5.9-3.41c.21-.12.23-.3 0-.4zm17.68-10.22a.78.78 0 00-.7 0l-7.3 4.29c-.21.11-.22.29 0 .4l4.58 2.65a.78.78 0 00.7 0l7.37-4.26c.21-.11.23-.29 0-.4zm-33.93 19.59a.83.83 0 00-.69 0l-39.44 22.85c-.2.12-.22.3 0 .4l4.59 2.65a.76.76 0 00.69 0l39.46-22.78c.2-.12.22-.3 0-.4zm-41.66 24.06a.78.78 0 00-.7 0l-5.9 3.46c-.2.11-.22.29 0 .4l4.59 2.6a.76.76 0 00.69 0l5.9-3.4c.21-.12.22-.3 0-.41zm49.78-28.74a.78.78 0 00-.7 0l-5.9 3.41c-.2.11-.22.29 0 .4l4.59 2.65a.76.76 0 00.69 0l5.9-3.4c.21-.12.22-.3 0-.41zm-57.9 33.42a.83.83 0 00-.69 0L87 266.64c-.21.12-.22.3 0 .4l4.58 2.65a.85.85 0 00.7 0l5.9-3.41c.2-.12.22-.3 0-.4zm74.12-42.79a.78.78 0 00-.7 0l-5.9 3.41c-.2.12-.22.3 0 .4l4.59 2.65a.78.78 0 00.7 0l5.9-3.4c.2-.12.22-.3 0-.4zM192.75 206a.78.78 0 00-.7 0l-4.79 2.79c-.21.12-.23.3 0 .41l4.59 2.64a.78.78 0 00.7 0l4.79-2.77c.2-.12.22-.3 0-.4zm15.69-11l4.79-2.77c.21-.11.22-.29 0-.4l-4.58-2.65a.78.78 0 00-.7 0l-4.69 2.82c-.21.12-.23.3 0 .41l4.58 2.64a.79.79 0 00.62 0zm-28.59 1.38l4.79-2.77c.21-.12.22-.3 0-.4l-4.58-2.65a.85.85 0 00-.7 0l-4.73 2.76c-.21.12-.22.3 0 .4l4.58 2.65a.8.8 0 00.66 0zm-18.59 25.87l14-8.09c.21-.12.22-.3 0-.4l-4.58-2.65a.78.78 0 00-.7 0l-14 8.08c-.21.12-.22.3 0 .41l4.58 2.72a.76.76 0 00.7-.06zm39.5-23.18a.83.83 0 00.69 0l4.81-2.75c.2-.12.22-.3 0-.4l-4.59-2.65a.78.78 0 00-.7 0l-4.71 2.73c-.2.12-.22.3 0 .4zm-5.86-3.81l4.79-2.76c.21-.12.23-.3.05-.41l-4.59-2.64a.78.78 0 00-.7 0l-4.79 2.77c-.2.11-.22.29 0 .4l4.58 2.65a.8.8 0 00.66 0zm-40.64 31.06l4.8-2.77c.2-.12.22-.3 0-.4l-4.59-2.65a.76.76 0 00-.69 0l-4.8 2.77c-.2.12-.22.3 0 .4l4.58 2.65a.78.78 0 00.7.01zm31-18.29a.78.78 0 00.7 0l4.79-2.77c.2-.12.22-.3 0-.4l-4.49-2.69a.83.83 0 00-.69 0l-4.8 2.77c-.2.12-.22.3 0 .4zm-66 38.49l4.8-2.77c.2-.11.22-.29 0-.4l-4.59-2.65a.76.76 0 00-.69 0l-4.8 2.76c-.2.12-.22.3 0 .41l4.59 2.64a.73.73 0 00.69.02zm7-4l4.79-2.77c.21-.12.23-.3 0-.4l-4.58-2.65a.78.78 0 00-.7 0l-4.77 2.78c-.2.12-.22.3 0 .4l4.58 2.65a.82.82 0 00.7 0zm-14 8.08l4.79-2.76c.2-.12.22-.3 0-.4l-4.58-2.65a.78.78 0 00-.7 0l-4.77 2.78c-.21.12-.23.3 0 .4l4.58 2.65a.78.78 0 00.7-.05zm28-16.17l4.8-2.77c.2-.12.22-.3 0-.4l-4.59-2.65a.78.78 0 00-.7 0l-4.77 2.72c-.2.12-.22.3 0 .4l4.59 2.65a.82.82 0 00.67 0zm-7 4l4.79-2.77c.2-.11.22-.29 0-.4l-4.59-2.65a.76.76 0 00-.69 0l-4.8 2.76c-.2.12-.22.3 0 .41l4.59 2.64a.75.75 0 00.7.02zm14-8.11l4.79-2.77c.2-.11.22-.29 0-.4l-4.58-2.65a.78.78 0 00-.7 0l-4.77 2.83c-.21.12-.23.3 0 .41l4.58 2.64a.75.75 0 00.68-.05zm38.23-56.27a.85.85 0 00.7 0l4.79-2.77c.2-.12.22-.3 0-.4l-1.22-.71a.78.78 0 00-.7 0l-4.8 2.79c-.2.12-.22.3 0 .41zm-34.83 22.07a.76.76 0 00.69 0l4.8-2.76c.2-.12.22-.3 0-.41l-4.55-2.63a.76.76 0 00-.69 0l-4.8 2.77c-.2.12-.22.3 0 .4zm14-8.09a.78.78 0 00.7 0l4.79-2.76c.2-.12.22-.3 0-.41l-4.59-2.64a.76.76 0 00-.69 0l-4.8 2.77c-.2.12-.22.3 0 .4zm-22.57 13a.78.78 0 00.7 0l4.79-2.76c.21-.12.22-.3 0-.41l-4.58-2.63a.78.78 0 00-.7 0l-4.79 2.77c-.21.11-.22.29 0 .4zm15.56-9a.78.78 0 00.7 0l4.79-2.77c.21-.12.23-.3 0-.4l-4.58-2.65a.78.78 0 00-.7 0l-4.79 2.79c-.21.12-.22.3 0 .41zm-29.57 17.08a.78.78 0 00.7 0l4.79-2.76c.2-.12.22-.3 0-.41l-4.57-2.61a.73.73 0 00-.7 0l-4.79 2.77c-.21.11-.23.29 0 .4zm7-4.05a.76.76 0 00.69 0l4.8-2.77c.2-.12.22-.3 0-.4l-4.57-2.64a.83.83 0 00-.69 0l-4.8 2.77c-.2.12-.22.3 0 .4zm36.37-22.94a.83.83 0 00.69 0l4.8-2.77c.2-.12.22-.3 0-.4l-1.22-.71a.78.78 0 00-.7 0l-4.76 2.81c-.21.12-.22.3 0 .4zm21-12.13a.76.76 0 00.69 0l4.8-2.77c.2-.11.22-.29 0-.4l-1.22-.7a.73.73 0 00-.7 0l-4.79 2.77c-.21.12-.23.3 0 .4zm9.63 5.56a.78.78 0 00.7 0l4.79-2.76c.2-.12.22-.3 0-.41l-4.57-2.63a.76.76 0 00-.69 0l-4.8 2.77c-.2.12-.22.3 0 .4zm13.34 15.37l4.8-2.77c.2-.12.22-.3 0-.4l-4.59-2.65a.76.76 0 00-.69 0l-4.8 2.77c-.2.12-.22.3 0 .4l4.59 2.65a.79.79 0 00.73 0zm-37-12.85a.78.78 0 00.7 0l4.84-2.75c.21-.11.23-.29 0-.4l-1.22-.7a.76.76 0 00-.69 0l-4.8 2.77c-.2.12-.22.3 0 .4zM121 213.16a.73.73 0 00.7 0l4.79-2.77c.21-.12.23-.3 0-.4l-4.49-2.66a.85.85 0 00-.7 0l-4.79 2.77c-.2.12-.22.3 0 .4z" fill="#455a64"/><path fill="#263238" d="M141.15 253.07l1.04.6 27.69 15.98 49.23-28.42 1.03-.59-28.73-16.58-50.26 29.01z"/><path fill="#37474f" d="M218.48 241.59l-27.07-15.62-48.59 28.07 27.06 15.61 48.6-28.06z"/></g></g><g data-name="freepik--window-2--inject-12" id="background-screen" className="invisible" ><g data-name="freepik--Window--inject-12"><g data-name="freepik--window--inject-12"><path d="M187.66 26.52a1.41 1.41 0 000-.29.06.06 0 000-.06.89.89 0 00-.07-.28 1.44 1.44 0 00-.18-.4.39.39 0 00-.15-.16.31.31 0 00-.09-.11.8.8 0 00-.17-.22 1.17 1.17 0 00-.27-.15 2.25 2.25 0 00-2.1.26L27.65 115.39c-1.72 1-3.12 3.41-3.12 6.89v116.6a2.13 2.13 0 001.12 1.88l.14.09.16.09.27.09a1.83 1.83 0 00.4.05 2.07 2.07 0 001-.29h.08l3-1.72 153.86-88.62a6.87 6.87 0 003.13-5.4V26.91a2.56 2.56 0 00-.03-.39z" fill="#455a64"/><path d="M186.66 24.84a2.25 2.25 0 00-2.1.26L27.65 115.39a6.9 6.9 0 00-3.12 5.4v6l-4-2.34v-6a6.88 6.88 0 013.11-5.39l156.92-90.29a2.17 2.17 0 012.26-.18c.59.41 3.18 1.9 3.84 2.25z" fill="#30d5ef"/><path d="M187.68 26.88c0-2-1.4-2.76-3.12-1.77L27.65 115.39a6.9 6.9 0 00-3.12 5.4v6l163.15-93.87z" class="svg-gradient-primary" fill="#30d5ef"/><path d="M184.56 25.11L27.65 115.39a6.47 6.47 0 00-2.19 2.31l-4-2.29a6.33 6.33 0 012.17-2.28l156.92-90.28a2.19 2.19 0 012.27-.18c.55.34 3.14 1.81 3.8 2.16a2.29 2.29 0 00-2.06.28z" fill="#fff" opacity=".2"/><path d="M20.54 124.52v-6a6.4 6.4 0 01.95-3.12l4 2.29a6.37 6.37 0 00-.93 3.09v6z" style="isolation:isolate" opacity=".15"/><path d="M175.39 33.33a3.15 3.15 0 00-1.18 2.51c0 1 .53 1.51 1.18 1.14a3.15 3.15 0 001.18-2.51c0-1.05-.57-1.56-1.18-1.14zM179.66 30.82a3.1 3.1 0 00-1.19 2.51c0 1 .53 1.52 1.19 1.14a3.15 3.15 0 001.18-2.47c0-1-.53-1.56-1.18-1.18zM183.92 28.33a3.15 3.15 0 00-1.18 2.51c0 1 .53 1.52 1.18 1.14a3.15 3.15 0 001.18-2.51c0-.98-.53-1.47-1.18-1.14z" fill="#37474f"/><path d="M25.65 240.77l-.16-.09-3.29-1.9a3.3 3.3 0 01-1.63-2.42 3.38 3.38 0 010-.45v-111.4l4 2.33v112a2 2 0 001 1.77l.1.07z" fill="#263238"/></g><g data-name="freepik--Code--inject-12" opacity=".5"><g opacity=".6" fill="#fff"><path d="M33.37 191.05l4.25-2.45a.48.48 0 01.78.44v1.57a1.69 1.69 0 01-.78 1.33l-4.24 2.45c-.43.25-.78.05-.78-.44v-1.56a1.74 1.74 0 01.77-1.34zM33.37 197.27l4.25-2.46a.48.48 0 01.78.45v1.56a1.7 1.7 0 01-.78 1.34l-4.24 2.45c-.43.25-.78 0-.78-.45v-1.56a1.72 1.72 0 01.77-1.33zM33.37 203.48l4.25-2.48c.43-.25.78-.05.78.44V203a1.69 1.69 0 01-.78 1.34l-4.24 2.45c-.43.25-.78.05-.78-.44v-1.56a1.74 1.74 0 01.77-1.31zM33.37 209.7l4.25-2.46a.48.48 0 01.78.45v1.56a1.7 1.7 0 01-.78 1.34L33.38 213c-.43.24-.78.05-.78-.45V211a1.72 1.72 0 01.77-1.3z"/></g><g opacity=".6" fill="#fff"><path d="M33.37 160.22l4.25-2.45c.43-.25.78-.05.78.45v1.56a1.69 1.69 0 01-.78 1.33l-4.24 2.46a.48.48 0 01-.78-.45v-1.56a1.74 1.74 0 01.77-1.34zM33.37 166.44l4.25-2.44a.48.48 0 01.78.45V166a1.7 1.7 0 01-.78 1.34l-4.24 2.45c-.43.25-.78.05-.78-.44v-1.57a1.72 1.72 0 01.77-1.34zM33.37 172.65l4.25-2.45c.43-.25.78 0 .78.44v1.57a1.69 1.69 0 01-.78 1.33L33.38 176a.48.48 0 01-.78-.45V174a1.74 1.74 0 01.77-1.35zM33.37 178.87l4.25-2.46a.48.48 0 01.78.45v1.56a1.7 1.7 0 01-.78 1.34l-4.24 2.45c-.43.25-.78 0-.78-.44v-1.57a1.72 1.72 0 01.77-1.33zM33.37 221.88l4.25-2.45c.43-.25.78-.05.78.44v1.56a1.7 1.7 0 01-.78 1.34l-4.24 2.45c-.43.25-.78.05-.78-.44v-1.56a1.74 1.74 0 01.77-1.34zM33.37 228.09l4.25-2.45c.43-.24.78 0 .78.45v1.56a1.7 1.7 0 01-.78 1.34l-4.24 2.45a.48.48 0 01-.78-.45v-1.56a1.74 1.74 0 01.77-1.34z"/></g><g opacity=".6" fill="#fff"><path d="M33.37 129.39l4.25-2.45c.43-.24.78 0 .78.45V129a1.7 1.7 0 01-.78 1.34l-4.24 2.45a.48.48 0 01-.78-.45v-1.56a1.74 1.74 0 01.77-1.39zM33.37 135.61l4.25-2.45c.43-.25.78 0 .78.44v1.56a1.7 1.7 0 01-.78 1.34l-4.24 2.5c-.43.25-.78.05-.78-.44V137a1.74 1.74 0 01.77-1.39zM33.37 141.82l4.25-2.45c.43-.25.78-.05.78.45v1.56a1.7 1.7 0 01-.78 1.34l-4.24 2.45a.48.48 0 01-.78-.45v-1.56a1.74 1.74 0 01.77-1.34zM33.37 148l4.25-2.45c.43-.25.78-.05.78.44v1.56a1.7 1.7 0 01-.78 1.34l-4.24 2.45c-.43.25-.78.05-.78-.44v-1.56a1.74 1.74 0 01.77-1.34z"/></g><path d="M178.43 91.53l-32.6 18.8a4.86 4.86 0 00-2.19 3.79v49.11c0 1.39 1 2 2.19 1.26l32.6-18.82a4.83 4.83 0 002.19-3.79V92.79c0-1.39-.98-1.96-2.19-1.26z" fill="#37474f"/><path d="M175.4 128.83l-3 1.74a2.38 2.38 0 00-1.11 1.84c0 .66.5.91 1.11.56l3-1.74a2.36 2.36 0 001.11-1.84c0-.66-.51-.91-1.11-.56z" fill="#30d5ef"/><path d="M175.4 128.83l-3 1.74a2.38 2.38 0 00-1.11 1.84c0 .66.5.91 1.11.56l3-1.74a2.36 2.36 0 001.11-1.84c0-.66-.51-.91-1.11-.56z" style="isolation:isolate" fill="#fff" opacity=".6"/><path d="M175.4 98l-3 1.74a2.4 2.4 0 00-1.11 1.84c0 .66.5.91 1.11.56l3-1.74a2.36 2.36 0 001.11-1.84c0-.65-.51-.9-1.11-.56z" fill="#30d5ef"/><path d="M175.4 98l-3 1.74a2.4 2.4 0 00-1.11 1.84c0 .66.5.91 1.11.56l3-1.74a2.36 2.36 0 001.11-1.84c0-.65-.51-.9-1.11-.56z" style="isolation:isolate" fill="#fff" opacity=".6"/><path d="M171.18 106.6l-3 1.73a2.4 2.4 0 00-1.1 1.84c0 .67.49.92 1.1.56l3-1.73a2.33 2.33 0 001.11-1.84c-.03-.66-.49-.91-1.11-.56z" fill="#30d5ef"/><path d="M171.18 106.6l-3 1.73a2.4 2.4 0 00-1.1 1.84c0 .67.49.92 1.1.56l3-1.73a2.33 2.33 0 001.11-1.84c-.03-.66-.49-.91-1.11-.56z" style="isolation:isolate" fill="#fff" opacity=".6"/><path d="M171.18 112.75l-3 1.73a2.4 2.4 0 00-1.1 1.84c0 .66.49.92 1.1.56l3-1.73a2.35 2.35 0 001.08-1.82c0-.69-.46-.94-1.08-.58z" fill="#30d5ef"/><path d="M171.18 112.75l-3 1.73a2.4 2.4 0 00-1.1 1.84c0 .66.49.92 1.1.56l3-1.73a2.35 2.35 0 001.08-1.82c0-.69-.46-.94-1.08-.58z" style="isolation:isolate" fill="#fff" opacity=".6"/><path d="M175.4 116.5l-3 1.74a2.38 2.38 0 00-1.11 1.84c0 .66.5.91 1.11.56l3-1.74a2.38 2.38 0 001.11-1.84c0-.66-.51-.91-1.11-.56z" fill="#30d5ef"/><path d="M175.4 116.5l-3 1.74a2.38 2.38 0 00-1.11 1.84c0 .66.5.91 1.11.56l3-1.74a2.38 2.38 0 001.11-1.84c0-.66-.51-.91-1.11-.56z" style="isolation:isolate" fill="#fff" opacity=".6"/><path d="M171.18 125.09l-3 1.74a2.36 2.36 0 00-1.1 1.84c0 .66.49.91 1.1.56l3-1.74a2.33 2.33 0 001.11-1.84c-.03-.65-.49-.91-1.11-.56z" fill="#30d5ef"/><path d="M171.18 125.09l-3 1.74a2.36 2.36 0 00-1.1 1.84c0 .66.49.91 1.1.56l3-1.74a2.33 2.33 0 001.11-1.84c-.03-.65-.49-.91-1.11-.56z" style="isolation:isolate" fill="#fff" opacity=".6"/><path d="M167.18 102.76l-18.32 10.57a2.4 2.4 0 00-1.11 1.84c0 .66.5.91 1.11.56l18.32-10.58a2.35 2.35 0 001.08-1.82c0-.67-.46-.92-1.08-.57z" fill="#30d5ef"/><path d="M167.18 102.76l-18.32 10.57a2.4 2.4 0 00-1.11 1.84c0 .66.5.91 1.11.56l18.32-10.58a2.35 2.35 0 001.08-1.82c0-.67-.46-.92-1.08-.57z" style="isolation:isolate" fill="#fff" opacity=".8"/><path d="M167.18 133.58l-18.32 10.58a2.4 2.4 0 00-1.11 1.84c0 .66.5.91 1.11.56L167.18 136a2.33 2.33 0 001.11-1.84c-.03-.68-.49-.93-1.11-.58z" fill="#30d5ef"/><path d="M167.18 133.58l-18.32 10.58a2.4 2.4 0 00-1.11 1.84c0 .66.5.91 1.11.56L167.18 136a2.33 2.33 0 001.11-1.84c-.03-.68-.49-.93-1.11-.58z" style="isolation:isolate" fill="#fff" opacity=".8"/><path d="M163 111.33l-14.11 8.16a2.4 2.4 0 00-1.11 1.84c0 .67.5.92 1.11.56l14.11-8.16a2.36 2.36 0 001.11-1.84c-.03-.65-.53-.89-1.11-.56z" fill="#30d5ef"/><path d="M163 111.33l-14.11 8.16a2.4 2.4 0 00-1.11 1.84c0 .67.5.92 1.11.56l14.11-8.16a2.36 2.36 0 001.11-1.84c-.03-.65-.53-.89-1.11-.56z" style="isolation:isolate" fill="#fff" opacity=".8"/><path d="M163 117.51l-14.11 8.16a2.38 2.38 0 00-1.11 1.84c0 .66.5.91 1.11.56l14.11-8.16a2.4 2.4 0 001.11-1.84c-.03-.66-.53-.92-1.11-.56z" fill="#30d5ef"/><path d="M163 117.51l-14.11 8.16a2.38 2.38 0 00-1.11 1.84c0 .66.5.91 1.11.56l14.11-8.16a2.4 2.4 0 001.11-1.84c-.03-.66-.53-.92-1.11-.56z" style="isolation:isolate" fill="#fff" opacity=".8"/><path d="M167.18 121.25l-18.32 10.58a2.4 2.4 0 00-1.11 1.84c0 .66.5.91 1.11.56l18.32-10.58a2.33 2.33 0 001.11-1.84c-.03-.66-.49-.91-1.11-.56z" fill="#30d5ef"/><path d="M167.18 121.25l-18.32 10.58a2.4 2.4 0 00-1.11 1.84c0 .66.5.91 1.11.56l18.32-10.58a2.33 2.33 0 001.11-1.84c-.03-.66-.49-.91-1.11-.56z" style="isolation:isolate" fill="#fff" opacity=".8"/><path d="M163 129.84L148.86 138a2.38 2.38 0 00-1.11 1.83c0 .67.5.92 1.11.57l14.14-8.16a2.4 2.4 0 001.11-1.84c-.03-.66-.53-.92-1.11-.56z" fill="#30d5ef"/><path d="M163 129.84L148.86 138a2.38 2.38 0 00-1.11 1.83c0 .67.5.92 1.11.57l14.14-8.16a2.4 2.4 0 001.11-1.84c-.03-.66-.53-.92-1.11-.56z" style="isolation:isolate" fill="#fff" opacity=".8"/><path d="M175.4 141.23l-3 1.73a2.4 2.4 0 00-1.11 1.84c0 .67.5.92 1.11.56l3-1.73a2.4 2.4 0 001.11-1.84c0-.66-.51-.92-1.11-.56z" fill="#30d5ef"/><path d="M175.4 141.23l-3 1.73a2.4 2.4 0 00-1.11 1.84c0 .67.5.92 1.11.56l3-1.73a2.4 2.4 0 001.11-1.84c0-.66-.51-.92-1.11-.56z" style="isolation:isolate" fill="#fff" opacity=".6"/><path d="M171.18 137.49l-3 1.73a2.36 2.36 0 00-1.1 1.84c0 .66.49.91 1.1.56l3-1.73a2.36 2.36 0 001.11-1.84c-.03-.67-.49-.92-1.11-.56z" fill="#30d5ef"/><path d="M171.18 137.49l-3 1.73a2.36 2.36 0 00-1.1 1.84c0 .66.49.91 1.1.56l3-1.73a2.36 2.36 0 001.11-1.84c-.03-.67-.49-.92-1.11-.56z" style="isolation:isolate" fill="#fff" opacity=".6"/><path d="M167.18 146l-18.32 10.58a2.4 2.4 0 00-1.11 1.84c0 .67.5.92 1.11.56l18.32-10.62a2.31 2.31 0 001.08-1.8c0-.69-.46-.94-1.08-.56z" fill="#30d5ef"/><path d="M167.18 146l-18.32 10.58a2.4 2.4 0 00-1.11 1.84c0 .67.5.92 1.11.56l18.32-10.62a2.31 2.31 0 001.08-1.8c0-.69-.46-.94-1.08-.56z" style="isolation:isolate" fill="#fff" opacity=".8"/><path d="M163 142.23l-14.11 8.16a2.4 2.4 0 00-1.11 1.84c0 .66.5.91 1.11.56l14.11-8.16a2.36 2.36 0 001.11-1.84c-.03-.66-.53-.91-1.11-.56z" fill="#30d5ef"/><path d="M163 142.23l-14.11 8.16a2.4 2.4 0 00-1.11 1.84c0 .66.5.91 1.11.56l14.11-8.16a2.36 2.36 0 001.11-1.84c-.03-.66-.53-.91-1.11-.56z" style="isolation:isolate" fill="#fff" opacity=".8"/><path d="M178.43 41l-32.6 18.82a4.86 4.86 0 00-2.19 3.79v37.68c0 1.4 1 2 2.19 1.27l32.6-18.82a4.83 4.83 0 002.19-3.74V42.33c0-1.42-.98-2-2.19-1.33z" fill="#37474f"/><path d="M175.4 78.33l-3 1.74a2.4 2.4 0 00-1.11 1.84c0 .66.5.91 1.11.56l3-1.74a2.36 2.36 0 001.11-1.84c0-.65-.51-.89-1.11-.56z" fill="#30d5ef"/><path d="M175.4 78.33l-3 1.74a2.4 2.4 0 00-1.11 1.84c0 .66.5.91 1.11.56l3-1.74a2.36 2.36 0 001.11-1.84c0-.65-.51-.89-1.11-.56z" style="isolation:isolate" fill="#fff" opacity=".6"/><path d="M175.4 47.52l-3 1.74a2.4 2.4 0 00-1.11 1.84c0 .66.5.91 1.11.56l3-1.74a2.38 2.38 0 001.11-1.83c0-.67-.51-.92-1.11-.57z" fill="#30d5ef"/><path d="M175.4 47.52l-3 1.74a2.4 2.4 0 00-1.11 1.84c0 .66.5.91 1.11.56l3-1.74a2.38 2.38 0 001.11-1.83c0-.67-.51-.92-1.11-.57z" style="isolation:isolate" fill="#fff" opacity=".6"/><path d="M171.18 56.11l-3 1.73a2.4 2.4 0 00-1.1 1.84c0 .67.49.92 1.1.56l3-1.73a2.33 2.33 0 001.11-1.84c-.03-.67-.49-.91-1.11-.56z" fill="#30d5ef"/><path d="M171.18 56.11l-3 1.73a2.4 2.4 0 00-1.1 1.84c0 .67.49.92 1.1.56l3-1.73a2.33 2.33 0 001.11-1.84c-.03-.67-.49-.91-1.11-.56z" style="isolation:isolate" fill="#fff" opacity=".6"/><path d="M171.18 62.26l-3 1.73a2.4 2.4 0 00-1.1 1.84c0 .67.49.92 1.1.56l3-1.73a2.36 2.36 0 001.11-1.84c-.03-.66-.49-.92-1.11-.56z" fill="#30d5ef"/><path d="M171.18 62.26l-3 1.73a2.4 2.4 0 00-1.1 1.84c0 .67.49.92 1.1.56l3-1.73a2.36 2.36 0 001.11-1.84c-.03-.66-.49-.92-1.11-.56z" style="isolation:isolate" fill="#fff" opacity=".6"/><path d="M175.4 66l-3 1.74a2.38 2.38 0 00-1.11 1.84c0 .66.5.91 1.11.56l3-1.74a2.4 2.4 0 001.11-1.84c0-.65-.51-.9-1.11-.56z" fill="#30d5ef"/><path d="M175.4 66l-3 1.74a2.38 2.38 0 00-1.11 1.84c0 .66.5.91 1.11.56l3-1.74a2.4 2.4 0 001.11-1.84c0-.65-.51-.9-1.11-.56z" style="isolation:isolate" fill="#fff" opacity=".6"/><path d="M171.18 74.6l-3 1.74a2.36 2.36 0 00-1.1 1.84c0 .66.49.91 1.1.56l3-1.74a2.33 2.33 0 001.11-1.84c-.03-.66-.49-.91-1.11-.56z" fill="#30d5ef"/><path d="M171.18 74.6l-3 1.74a2.36 2.36 0 00-1.1 1.84c0 .66.49.91 1.1.56l3-1.74a2.33 2.33 0 001.11-1.84c-.03-.66-.49-.91-1.11-.56z" style="isolation:isolate" fill="#fff" opacity=".6"/><path d="M167.18 52.27l-18.32 10.58a2.4 2.4 0 00-1.11 1.84c0 .66.5.91 1.11.56l18.32-10.58a2.38 2.38 0 001.08-1.84c0-.66-.46-.91-1.08-.56z" fill="#30d5ef"/><path d="M167.18 52.27l-18.32 10.58a2.4 2.4 0 00-1.11 1.84c0 .66.5.91 1.11.56l18.32-10.58a2.38 2.38 0 001.08-1.84c0-.66-.46-.91-1.08-.56z" style="isolation:isolate" fill="#fff" opacity=".8"/><path d="M167.18 83.09l-18.32 10.58a2.4 2.4 0 00-1.11 1.84c0 .66.5.91 1.11.56l18.32-10.58a2.33 2.33 0 001.11-1.84c-.03-.65-.49-.91-1.11-.56z" fill="#30d5ef"/><path d="M167.18 83.09l-18.32 10.58a2.4 2.4 0 00-1.11 1.84c0 .66.5.91 1.11.56l18.32-10.58a2.33 2.33 0 001.11-1.84c-.03-.65-.49-.91-1.11-.56z" style="isolation:isolate" fill="#fff" opacity=".8"/><path d="M163 60.85L148.86 69a2.4 2.4 0 00-1.11 1.84c0 .67.5.92 1.11.56L163 63.25a2.38 2.38 0 001.11-1.83c-.03-.67-.53-.92-1.11-.57z" fill="#30d5ef"/><path d="M163 60.85L148.86 69a2.4 2.4 0 00-1.11 1.84c0 .67.5.92 1.11.56L163 63.25a2.38 2.38 0 001.11-1.83c-.03-.67-.53-.92-1.11-.57z" style="isolation:isolate" fill="#fff" opacity=".8"/><path d="M163 67l-14.11 8.16a2.4 2.4 0 00-1.14 1.84c0 .66.5.91 1.11.56L163 69.42a2.38 2.38 0 001.11-1.84c-.03-.66-.53-.91-1.11-.58z" fill="#30d5ef"/><path d="M163 67l-14.11 8.16a2.4 2.4 0 00-1.14 1.84c0 .66.5.91 1.11.56L163 69.42a2.38 2.38 0 001.11-1.84c-.03-.66-.53-.91-1.11-.58z" style="isolation:isolate" fill="#fff" opacity=".8"/><path d="M167.18 70.76l-18.32 10.57a2.4 2.4 0 00-1.11 1.84c0 .66.5.92 1.11.56l18.32-10.58a2.35 2.35 0 001.08-1.82c0-.67-.46-.92-1.08-.57z" fill="#30d5ef"/><path d="M167.18 70.76l-18.32 10.57a2.4 2.4 0 00-1.11 1.84c0 .66.5.92 1.11.56l18.32-10.58a2.35 2.35 0 001.08-1.82c0-.67-.46-.92-1.08-.57z" style="isolation:isolate" fill="#fff" opacity=".8"/><path d="M163 79.33l-14.11 8.16a2.38 2.38 0 00-1.11 1.84c0 .66.5.91 1.11.56L163 81.73a2.38 2.38 0 001.11-1.84c-.03-.64-.53-.89-1.11-.56z" fill="#30d5ef"/><path d="M163 79.33l-14.11 8.16a2.38 2.38 0 00-1.11 1.84c0 .66.5.91 1.11.56L163 81.73a2.38 2.38 0 001.11-1.84c-.03-.64-.53-.89-1.11-.56z" style="isolation:isolate" fill="#fff" opacity=".8"/></g><path d="M44.48 122.22l30.83-17.81c.44-.24.79-.07.79.4a1.65 1.65 0 01-.79 1.3l-30.83 17.8c-.43.25-.78.07-.78-.4a1.67 1.67 0 01.78-1.29zM44.45 142.66l90.75-52.33c.43-.25.78-.08.78.39a1.69 1.69 0 01-.78 1.3l-90.75 52.31c-.43.25-.78.08-.78-.39a1.68 1.68 0 01.78-1.28zM78.34 102.67l57.34-33c.43-.25.78-.08.78.39a1.69 1.69 0 01-.78 1.3l-57.34 33c-.43.25-.78.07-.78-.4a1.67 1.67 0 01.78-1.29zM44.48 127.08l15.61-9c.43-.25.78-.07.78.4a1.69 1.69 0 01-.78 1.3l-15.61 9c-.43.25-.78.07-.78-.4a1.69 1.69 0 01.78-1.3z" fill="#30d5ef"/><path d="M44.48 127.08l15.61-9c.43-.25.78-.07.78.4a1.69 1.69 0 01-.78 1.3l-15.61 9c-.43.25-.78.07-.78-.4a1.69 1.69 0 01.78-1.3z" style="isolation:isolate" fill="#fff" opacity=".6"/><path d="M44.48 131.91l9.38-5.4c.43-.25.78-.07.78.4a1.67 1.67 0 01-.78 1.29l-9.38 5.4c-.43.25-.78.07-.78-.4a1.67 1.67 0 01.78-1.29z" fill="#30d5ef"/><path d="M44.48 131.91l9.38-5.4c.43-.25.78-.07.78.4a1.67 1.67 0 01-.78 1.29l-9.38 5.4c-.43.25-.78.07-.78-.4a1.67 1.67 0 01.78-1.29z" style="isolation:isolate" fill="#fff" opacity=".6"/><path d="M63.12 116.33L117.44 85c.43-.24.78-.07.78.4a1.69 1.69 0 01-.78 1.3L63.12 118c-.43.25-.78.07-.78-.4a1.67 1.67 0 01.78-1.27z" fill="#30d5ef"/><path d="M63.12 116.33L117.44 85c.43-.24.78-.07.78.4a1.69 1.69 0 01-.78 1.3L63.12 118c-.43.25-.78.07-.78-.4a1.67 1.67 0 01.78-1.27z" style="isolation:isolate" fill="#fff" opacity=".6"/><path d="M52.61 155.46l83.07-48c.43-.25.78-.07.78.39a1.69 1.69 0 01-.78 1.3l-83.07 48c-.43.25-.78.08-.78-.39a1.69 1.69 0 01.78-1.3zM52.61 150.63l83.07-48c.43-.25.78-.07.78.4a1.69 1.69 0 01-.78 1.3l-83.07 48c-.43.24-.78.07-.78-.4a1.69 1.69 0 01.78-1.3z" fill="#ffa8a7"/><path d="M56.36 125.08l15.45-9c.43-.25.78-.07.78.39a1.69 1.69 0 01-.78 1.3l-15.45 9c-.43.25-.78.07-.78-.39a1.69 1.69 0 01.78-1.3z" fill="#30d5ef"/><path d="M56.36 125.08l15.45-9c.43-.25.78-.07.78.39a1.69 1.69 0 01-.78 1.3l-15.45 9c-.43.25-.78.07-.78-.39a1.69 1.69 0 01.78-1.3z" style="isolation:isolate" fill="#fff" opacity=".6"/><path d="M74.84 114.33l60.42-34.54c.44-.25.79-.08.79.39a1.65 1.65 0 01-.79 1.3l-60.37 34.58c-.43.25-.78.07-.78-.39a1.7 1.7 0 01.73-1.34z" fill="#30d5ef"/><path d="M74.84 114.33l60.42-34.54c.44-.25.79-.08.79.39a1.65 1.65 0 01-.79 1.3l-60.37 34.58c-.43.25-.78.07-.78-.39a1.7 1.7 0 01.73-1.34z" style="isolation:isolate" fill="#fff" opacity=".6"/><path d="M44.45 137l27.36-15.68c.43-.24.78-.07.78.4a1.69 1.69 0 01-.78 1.3l-27.36 15.7c-.43.25-.78.07-.78-.39a1.69 1.69 0 01.78-1.33z" fill="#30d5ef"/><path d="M44.45 137l27.36-15.68c.43-.24.78-.07.78.4a1.69 1.69 0 01-.78 1.3l-27.36 15.7c-.43.25-.78.07-.78-.39a1.69 1.69 0 01.78-1.33z" style="isolation:isolate" fill="#fff" opacity=".6"/><path d="M74.84 119.56L135.26 85c.44-.25.79-.07.79.4a1.65 1.65 0 01-.79 1.29l-60.37 34.56c-.43.25-.78.07-.78-.4a1.67 1.67 0 01.73-1.29z" fill="#30d5ef"/><path d="M74.84 119.56L135.26 85c.44-.25.79-.07.79.4a1.65 1.65 0 01-.79 1.29l-60.37 34.56c-.43.25-.78.07-.78-.4a1.67 1.67 0 01.73-1.29z" style="isolation:isolate" fill="#fff" opacity=".6"/><path d="M52.61 160.33l83.07-47.87c.43-.25.78-.08.78.39a1.69 1.69 0 01-.78 1.3L52.61 162c-.43.24-.78.07-.78-.4a1.69 1.69 0 01.78-1.27zM52.61 165.19l83.07-47.86c.43-.25.78-.07.78.39a1.69 1.69 0 01-.78 1.3L52.61 166.9c-.43.25-.78.07-.78-.4a1.7 1.7 0 01.78-1.31zM52.61 170l83.07-47.88c.43-.25.78-.07.78.39a1.69 1.69 0 01-.78 1.3l-83.07 47.92c-.43.25-.78.07-.78-.4a1.67 1.67 0 01.78-1.33z" fill="#f28f8f"/><path d="M52.61 176.46l83.07-47.86c.43-.25.78-.08.78.39a1.69 1.69 0 01-.78 1.3l-83.07 47.86c-.43.25-.78.08-.78-.39a1.69 1.69 0 01.78-1.3zM44.64 181l3.62-2.08c.43-.24.78-.07.78.4a1.69 1.69 0 01-.78 1.3l-3.62 2.07c-.43.25-.78.07-.78-.39a1.69 1.69 0 01.78-1.3z" fill="#30d5ef"/><path d="M44.64 181l3.62-2.08c.43-.24.78-.07.78.4a1.69 1.69 0 01-.78 1.3l-3.62 2.07c-.43.25-.78.07-.78-.39a1.69 1.69 0 01.78-1.3z" style="isolation:isolate" fill="#fff" opacity=".6"/><path d="M44.64 154.55l3.62-2.08c.43-.25.78-.07.78.4a1.67 1.67 0 01-.78 1.29l-3.62 2.08c-.43.25-.78.07-.78-.39a1.69 1.69 0 01.78-1.3z" fill="#30d5ef"/><path d="M44.64 154.55l3.62-2.08c.43-.25.78-.07.78.4a1.67 1.67 0 01-.78 1.29l-3.62 2.08c-.43.25-.78.07-.78-.39a1.69 1.69 0 01.78-1.3z" style="isolation:isolate" fill="#fff" opacity=".6"/><path d="M44.64 165l3.62-2.08c.43-.25.78-.07.78.4a1.67 1.67 0 01-.78 1.29l-3.62 2.08c-.43.25-.78.07-.78-.39a1.69 1.69 0 01.78-1.3z" fill="#30d5ef"/><path d="M44.64 165l3.62-2.08c.43-.25.78-.07.78.4a1.67 1.67 0 01-.78 1.29l-3.62 2.08c-.43.25-.78.07-.78-.39a1.69 1.69 0 01.78-1.3z" style="isolation:isolate" fill="#fff" opacity=".6"/><path d="M44.64 169.8l3.62-2.08c.43-.24.78-.07.78.4a1.69 1.69 0 01-.78 1.3l-3.62 2.07c-.43.25-.78.07-.78-.39a1.69 1.69 0 01.78-1.3z" fill="#30d5ef"/><path d="M44.64 169.8l3.62-2.08c.43-.24.78-.07.78.4a1.69 1.69 0 01-.78 1.3l-3.62 2.07c-.43.25-.78.07-.78-.39a1.69 1.69 0 01.78-1.3z" style="isolation:isolate" fill="#fff" opacity=".6"/><path d="M44.64 174.64l3.62-2.07c.43-.25.78-.08.78.39a1.69 1.69 0 01-.78 1.3l-3.62 2.07c-.43.25-.78.08-.78-.39a1.69 1.69 0 01.78-1.3z" fill="#30d5ef"/><path d="M44.64 174.64l3.62-2.07c.43-.25.78-.08.78.39a1.69 1.69 0 01-.78 1.3l-3.62 2.07c-.43.25-.78.08-.78-.39a1.69 1.69 0 01.78-1.3z" style="isolation:isolate" fill="#fff" opacity=".6"/><path d="M44.64 185.38l3.62-2c.43-.25.78-.07.78.4a1.67 1.67 0 01-.78 1.29l-3.62 2.08c-.43.25-.78.07-.78-.4a1.67 1.67 0 01.78-1.37z" fill="#30d5ef"/><path d="M44.64 185.38l3.62-2c.43-.25.78-.07.78.4a1.67 1.67 0 01-.78 1.29l-3.62 2.08c-.43.25-.78.07-.78-.4a1.67 1.67 0 01.78-1.37z" style="isolation:isolate" fill="#fff" opacity=".6"/><path d="M52.61 180.87l83.07-48c.43-.25.78-.07.78.4a1.67 1.67 0 01-.78 1.29l-83.07 48c-.43.25-.78.07-.78-.39a1.69 1.69 0 01.78-1.3z" fill="#ffa8a7"/><path d="M53 212.33l22.31-12.87c.44-.25.79-.08.79.39a1.65 1.65 0 01-.79 1.3L53 214c-.43.25-.78.07-.78-.39a1.69 1.69 0 01.78-1.28zM44.64 217.07l3.62-2.07c.43-.25.78-.07.78.4a1.67 1.67 0 01-.78 1.29l-3.62 2.08c-.43.25-.78.07-.78-.39a1.69 1.69 0 01.78-1.31z" fill="#30d5ef"/><path d="M44.64 217.07l3.62-2.07c.43-.25.78-.07.78.4a1.67 1.67 0 01-.78 1.29l-3.62 2.08c-.43.25-.78.07-.78-.39a1.69 1.69 0 01.78-1.31z" style="isolation:isolate" fill="#fff" opacity=".6"/><path d="M44.64 221.45l3.62-2.12c.43-.25.78-.07.78.4a1.67 1.67 0 01-.78 1.29l-3.62 2.08c-.43.25-.78.07-.78-.4a1.67 1.67 0 01.78-1.25z" fill="#30d5ef"/><path d="M44.64 221.45l3.62-2.12c.43-.25.78-.07.78.4a1.67 1.67 0 01-.78 1.29l-3.62 2.08c-.43.25-.78.07-.78-.4a1.67 1.67 0 01.78-1.25z" style="isolation:isolate" fill="#fff" opacity=".6"/><path d="M53 216.48L135.34 169c.43-.25.78-.07.78.39a1.69 1.69 0 01-.78 1.3L53 218.17c-.43.25-.78.07-.78-.4a1.67 1.67 0 01.78-1.29z" fill="#ffa8a7"/><path d="M52.75 191.17l82.93-47.75c.43-.25.78-.07.78.39a1.69 1.69 0 01-.78 1.3l-82.93 47.75c-.43.25-.78.07-.78-.39a1.69 1.69 0 01.78-1.3zM44.64 195.79l3.62-2.08c.43-.25.78-.07.78.4a1.67 1.67 0 01-.78 1.29l-3.62 2.08c-.43.25-.78.07-.78-.4a1.67 1.67 0 01.78-1.29z" fill="#30d5ef"/><path d="M44.64 195.79l3.62-2.08c.43-.25.78-.07.78.4a1.67 1.67 0 01-.78 1.29l-3.62 2.08c-.43.25-.78.07-.78-.4a1.67 1.67 0 01.78-1.29z" style="isolation:isolate" fill="#fff" opacity=".6"/><path d="M52.75 196l82.93-47.75c.43-.25.78-.07.78.4a1.67 1.67 0 01-.78 1.29l-82.93 47.7c-.43.25-.78.07-.78-.39a1.69 1.69 0 01.78-1.25zM44.64 200.63l3.62-2.08c.43-.25.78-.07.78.4a1.67 1.67 0 01-.78 1.29l-3.62 2.09c-.43.25-.78.07-.78-.39a1.7 1.7 0 01.78-1.31z" fill="#30d5ef"/><path d="M44.64 200.63l3.62-2.08c.43-.25.78-.07.78.4a1.67 1.67 0 01-.78 1.29l-3.62 2.09c-.43.25-.78.07-.78-.39a1.7 1.7 0 01.78-1.31z" style="isolation:isolate" fill="#fff" opacity=".6"/><path d="M52.75 200.81l82.93-47.75c.43-.25.78-.07.78.4a1.67 1.67 0 01-.78 1.29L52.75 202.5c-.43.25-.78.08-.78-.39a1.69 1.69 0 01.78-1.3z" fill="#f28f8f"/><path d="M44.64 205.47l3.62-2.08c.43-.25.78-.07.78.4a1.69 1.69 0 01-.78 1.3l-3.62 2.07c-.43.25-.78.07-.78-.39a1.69 1.69 0 01.78-1.3z" fill="#30d5ef"/><path d="M44.64 205.47l3.62-2.08c.43-.25.78-.07.78.4a1.69 1.69 0 01-.78 1.3l-3.62 2.07c-.43.25-.78.07-.78-.39a1.69 1.69 0 01.78-1.3z" style="isolation:isolate" fill="#fff" opacity=".6"/></g></g><g data-name="freepik--window-1--inject-12" id="foreground-screen" className="invisible" ><g data-name="freepik--window--inject-12"><g data-name="freepik--window--inject-12"><path d="M59.26 148.47a3.87 3.87 0 01-1.69-3.07v-9.89a4 4 0 011.81-3.12L219.52 39.9a3.37 3.37 0 014.66 1.1 3.32 3.32 0 01.52 1.94v9.89a4 4 0 01-1.8 3.13L62.76 148.4a3.86 3.86 0 01-3.5.07z" fill="#30d5ef"/><path d="M224.69 42.6c-.13-.94-.89-1.28-1.79-.75L62.76 134.33a3.82 3.82 0 00-1.27 1.35l-3.38-2a3.63 3.63 0 011.27-1.34l160.14-92.49a3.37 3.37 0 014.65 1 3.28 3.28 0 01.52 1.66z" style="isolation:isolate" fill="#fff" opacity=".2"/><path d="M61.49 135.69a3.56 3.56 0 00-.53 1.77v5.45l-3.39-2v-5.66a1.13 1.13 0 01.07-.44 4.2 4.2 0 01.46-1.12z" style="isolation:isolate" opacity=".15"/><path d="M224.7 42.89v5.44l-107.78 62.28-51 29.44-5 2.86v-5.45a4 4 0 011.8-3.12l160.14-92.49c1.04-.58 1.84-.11 1.84 1.04z" class="svg-gradient-primary" fill="#30d5ef"/><path d="M219.77 46.33c.64-.37 1.16-.07 1.16.67a2.59 2.59 0 01-1.16 2c-.65.38-1.17.07-1.17-.67a2.59 2.59 0 011.17-2zM215.57 48.73c.64-.37 1.16-.07 1.16.67a2.59 2.59 0 01-1.16 2c-.65.38-1.17.07-1.17-.67a2.59 2.59 0 011.17-2zM211.37 51.15c.65-.37 1.17-.07 1.17.67a2.54 2.54 0 01-1.17 2c-.64.38-1.16.07-1.16-.67a2.59 2.59 0 011.16-2z" fill="#fff"/><path d="M62.76 257.33a3.06 3.06 0 01-1.41.43 3.63 3.63 0 01-2.09-.43 3.85 3.85 0 01-1.69-3.06V141l3.43 2v113.3c0 .82.41 1.29 1 1.29a1.7 1.7 0 00.76-.26z" fill="#e0e0e0"/><path d="M62 257.33c-.48 0-.77-.4-.77-1.06V143L117 110.8l107.48-62.08v113a3.72 3.72 0 01-1.69 2.93L62.65 257.1a1.29 1.29 0 01-.65.23z" fill="#fafafa"/><path d="M224.26 49.11v112.57a3.54 3.54 0 01-1.58 2.74L62.54 256.91a1.18 1.18 0 01-.58.19c-.5 0-.55-.59-.55-.85V143.17l4.74-2.74 51-29.44 107.11-61.88m.44-.77l-107.78 62.27-51 29.44-5 2.86v113.34c0 .82.41 1.29 1 1.29a1.62 1.62 0 00.8-.24l160.14-92.49a4 4 0 001.8-3.13V48.33z" fill="#e0e0e0"/></g><path fill="#30d5ef" d="M218.3 85.28L67.37 172.42v-24.38L218.3 60.9v24.38z"/><path fill="#fff" d="M218.3 85.28L67.37 172.42v-24.38L218.3 60.9v24.38z" opacity=".5"/><path d="M203.31 140.2l-29.93 17.28c-.76.44-1.38 0-1.38-1v-32.15a3.31 3.31 0 011.38-2.63l29.93-17.37c.77-.44 1.38 0 1.38 1v32.15a3.26 3.26 0 01-1.38 2.72z" fill="#30d5ef"/><path d="M203.31 140.2l-29.93 17.28c-.76.44-1.38 0-1.38-1v-32.15a3.31 3.31 0 011.38-2.63l29.93-17.37c.77-.44 1.38 0 1.38 1v32.15a3.26 3.26 0 01-1.38 2.72z" style="isolation:isolate" opacity=".3"/><path fill="#30d5ef" d="M174.32 153.37v-9.91l8.37-17.35 9.65 8.39-2.28-4.57 5.12-8.91 7.2 5.97v10.18l-28.06 16.2z"/><path d="M191.59 119.57a5 5 0 01-1.9 4c-1.05.61-1.9-.21-1.9-1.83a5 5 0 011.9-4c1.05-.61 1.9.26 1.9 1.83zM159.62 165.43l-29.94 17.28c-.76.44-1.38 0-1.38-1.05v-32.15a3.32 3.32 0 011.38-2.64l29.94-17.28c.76-.44 1.38 0 1.38 1v32.15a3.3 3.3 0 01-1.38 2.69z" fill="#30d5ef"/><path fill="#fff" d="M130.62 178.6v-9.91l8.38-17.35 9.64 8.38-2.28-4.56 5.12-8.92 7.2 5.98v10.18l-28.06 16.2z" opacity=".5"/><path d="M147.9 144.8a5 5 0 01-1.9 4c-1.05.6-1.9-.21-1.9-1.83a5 5 0 011.9-4c1-.64 1.9.21 1.9 1.83z" fill="#fff" opacity=".5"/><path d="M115.92 190.66L86 207.94c-.76.44-1.38 0-1.38-1.05v-32.15A3.32 3.32 0 0186 172.1l29.93-17.28c.76-.44 1.38 0 1.38 1V188a3.34 3.34 0 01-1.39 2.66z" fill="#30d5ef"/><path d="M115.92 190.66L86 207.94c-.76.44-1.38 0-1.38-1.05v-32.15A3.32 3.32 0 0186 172.1l29.93-17.28c.76-.44 1.38 0 1.38 1V188a3.34 3.34 0 01-1.39 2.66z" fill="#fff" opacity=".5"/><path fill="#fff" d="M86.93 203.83v-9.91l8.37-17.35 9.65 8.38-2.28-4.56 5.11-8.92 7.2 5.98v10.18l-28.05 16.2z" opacity=".5"/><path d="M104.2 170a5 5 0 01-1.9 4c-1 .6-1.9-.22-1.9-1.83a5 5 0 011.9-4c1.05-.58 1.9.24 1.9 1.83z" fill="#fff" opacity=".5"/><path d="M157.26 175L132 189.61c-.55.32-1 0-1-.75v-.2a2.38 2.38 0 011-1.91l25.3-14.61c.55-.32 1 0 1 .76v.2a2.38 2.38 0 01-1.04 1.9zM113.6 200.24l-25.29 14.6c-.56.32-1 0-1-.75v-.2a2.38 2.38 0 011-1.91l25.29-14.65c.55-.32 1 0 1 .76v.2a2.4 2.4 0 01-1 1.95zM201 149.78l-25.3 14.6c-.55.32-1 0-1-.75v-.2a2.38 2.38 0 011-1.91l25.3-14.6c.55-.32 1 0 1 .75v.2a2.38 2.38 0 01-1 1.91z" fill="#455a64"/><path d="M128.26 196.57a.51.51 0 01-.25-1l32.69-18.87a.52.52 0 01.7.18.51.51 0 01-.18.71l-32.7 18.87a.48.48 0 01-.26.11zM128.26 200.62a.51.51 0 01-.25-1l32.69-18.88a.52.52 0 01.52.89l-32.7 18.88a.48.48 0 01-.26.11zM128.26 204.67a.51.51 0 01-.25-1l32.69-18.88a.52.52 0 01.52.89l-32.7 18.88a.59.59 0 01-.26.11zM128.26 208.71a.5.5 0 01-.44-.25.52.52 0 01.19-.71l32.69-18.87a.52.52 0 01.7.18.51.51 0 01-.18.71l-32.7 18.87a.48.48 0 01-.26.07zM172 171.33a.52.52 0 01-.26-1l32.7-18.87a.51.51 0 11.51.89l-32.69 19a.57.57 0 01-.26-.02zM172 175.39a.52.52 0 11-.26-1l32.7-18.88a.52.52 0 01.69.27.53.53 0 01-.18.63l-32.69 18.92a.48.48 0 01-.26.06zM172 179.44a.52.52 0 01-.26-1l32.7-18.88a.51.51 0 11.51.89l-32.69 18.88a.47.47 0 01-.26.11zM172 183.49a.54.54 0 01-.45-.26.53.53 0 01.19-.71l32.7-18.87a.51.51 0 11.51.89l-32.69 18.88a.59.59 0 01-.26.07zM84.61 221.8a.52.52 0 01-.26-1L117 201.92a.53.53 0 01.71.19.52.52 0 01-.19.71l-32.7 18.91a.43.43 0 01-.21.07zM84.61 225.85a.52.52 0 01-.45-.26.51.51 0 01.19-.7L117 206a.52.52 0 01.53.89l-32.7 18.88a.43.43 0 01-.22.08zM84.61 229.9a.54.54 0 01-.45-.26.52.52 0 01.19-.71L117 210.06a.52.52 0 01.53.89l-32.7 18.88a.55.55 0 01-.22.07zM84.61 233.94a.52.52 0 01-.26-1L117 214.06a.53.53 0 01.71.19.52.52 0 01-.19.71l-32.7 18.87a.47.47 0 01-.21.11z" fill="#e0e0e0"/><path fill="#30d5ef" d="M218.3 68.26l-19.73 11.39v-7.36L218.3 60.9v7.36zM197.66 80.17l-19.73 11.39v-7.35l19.73-11.39v7.35zM177.01 92.09l-19.72 11.39v-7.35l19.72-11.39v7.35zM87.1 144.01L67.37 155.4v-7.36l19.73-11.39v7.36z"/></g></g></g></g></svg>